# xmcd
#
# Track frame offsets: 
#        182
#        17497
#        36472
#        62712
#        79445
#        96465
#        118970
#        135987
#        151887
#        168240
#
# Disc length: 2524 seconds
#
# Revision: 6
# Processed by: cddbd v1.5.2PL0 Copyright (c) Steve Scherf et al.
# Submitted via: ExactAudioCopy v1.3
#
DISCID=8209da0a
DTITLE=Various Artist - Billboard Hot R&B Hits 1980
DYEAR=1996
DGENRE=R&B
TTITLE0=Manhattans - Shining Star
TTITLE1=Larry Graham - One In A Million You
TTITLE2=Isley Brothers - Don't Say Goodnight (It's Time For Love)
TTITLE3=Ray Goodman And Brown - Special Lady
TTITLE4=Fatback - Backstrokin'
TTITLE5=Teddy Pendergrass - Love T.K.O.
TTITLE6=Gladys Knight And The Pips - Landlord
TTITLE7=Leon Haywood - Don't Push It Don't Force It
TTITLE8=Twennynine Featuring Lenny White - Peanut Butter
TTITLE9=Tom Browne - Funkin' For Jamaica (N.Y.)
EXTD=
EXTT0=
EXTT1=
EXTT2=
EXTT3=
EXTT4=
EXTT5=
EXTT6=
EXTT7=
EXTT8=
EXTT9=
PLAYORDER=
